<?xml version="1.0" encoding="UTF-8" standalone="no"?>
<svg width="695px" height="200px" viewBox="0 0 695 200" version="1.1" xmlns="http://www.w3.org/2000/svg" xmlns:xlink="http://www.w3.org/1999/xlink" xmlns:sketch="http://www.bohemiancoding.com/sketch/ns">
    <!-- Generator: Sketch 3.1.1 (8761) - http://www.bohemiancoding.com/sketch -->
    <title>Group</title>
    <desc>Created with Sketch.</desc>
    <defs></defs>
    <g id="Page-1" stroke="none" stroke-width="1" fill="none" fill-rule="evenodd" sketch:type="MSPage">
        <g id="Group" sketch:type="MSLayerGroup">
            <g sketch:type="MSShapeGroup">
                <rect id="Rectangle-1" fill="#D8D8D8" x="0" y="0" width="200" height="200"></rect>
                <rect id="Rectangle-100" fill="#F2C500" x="180" y="180" width="20" height="20"></rect>
                <rect id="Rectangle-99" fill="#FFFFFF" x="160" y="180" width="20" height="20"></rect>
                <rect id="Rectangle-98" fill="#F2C500" x="140" y="180" width="20" height="20"></rect>
                <rect id="Rectangle-97" fill="#BD0FE1" x="120" y="180" width="20" height="20"></rect>
                <rect id="Rectangle-96" fill="#FFFFFF" x="100" y="180" width="20" height="20"></rect>
                <rect id="Rectangle-95" fill="#E37AFF" x="80" y="180" width="20" height="20"></rect>
                <rect id="Rectangle-94" fill="#E87E03" x="60" y="180" width="20" height="20"></rect>
                <rect id="Rectangle-93" fill="#3997DE" x="40" y="180" width="20" height="20"></rect>
                <rect id="Rectangle-92" fill="#FFFFFF" x="20" y="180" width="20" height="20"></rect>
                <rect id="Rectangle-91" fill="#7ED321" x="0" y="180" width="20" height="20"></rect>
                <rect id="Rectangle-90" fill="#FFFFFF" x="180" y="160" width="20" height="20"></rect>
                <rect id="Rectangle-89" fill="#7ED321" x="160" y="160" width="20" height="20"></rect>
                <rect id="Rectangle-88" fill="#F2C500" x="140" y="160" width="20" height="20"></rect>
                <rect id="Rectangle-87" fill="#E37AFF" x="120" y="160" width="20" height="20"></rect>
                <rect id="Rectangle-86" fill="#F2C500" x="100" y="160" width="20" height="20"></rect>
                <rect id="Rectangle-85" fill="#9012FE" x="80" y="160" width="20" height="20"></rect>
                <rect id="Rectangle-84" fill="#FFFFFF" x="60" y="160" width="20" height="20"></rect>
                <rect id="Rectangle-83" fill="#4A7AA8" x="40" y="160" width="20" height="20"></rect>
                <rect id="Rectangle-82" fill="#4A7AA8" x="20" y="160" width="20" height="20"></rect>
                <rect id="Rectangle-81" fill="#D8D8D8" x="0" y="160" width="20" height="20"></rect>
                <rect id="Rectangle-80" fill="#00BD9C" x="180" y="140" width="20" height="20"></rect>
                <rect id="Rectangle-79" fill="#FFFFFF" x="160" y="140" width="20" height="20"></rect>
                <rect id="Rectangle-78" fill="#FFFFFF" x="140" y="140" width="20" height="20"></rect>
                <rect id="Rectangle-77" fill="#3997DE" x="120" y="140" width="20" height="20"></rect>
                <rect id="Rectangle-76" fill="#F2C500" x="100" y="140" width="20" height="20"></rect>
                <rect id="Rectangle-75" fill="#BD0FE1" x="80" y="140" width="20" height="20"></rect>
                <rect id="Rectangle-74" fill="#F2C500" x="60" y="140" width="20" height="20"></rect>
                <rect id="Rectangle-73" fill="#E87E03" x="40" y="140" width="20" height="20"></rect>
                <rect id="Rectangle-72" fill="#FFFFFF" x="20" y="140" width="20" height="20"></rect>
                <rect id="Rectangle-71" fill="#7ED321" x="0" y="140" width="20" height="20"></rect>
                <rect id="Rectangle-70" fill="#FFFFFF" x="180" y="120" width="20" height="20"></rect>
                <rect id="Rectangle-69" fill="#FFFFFF" x="160" y="120" width="20" height="20"></rect>
                <rect id="Rectangle-68" fill="#00BD9C" x="140" y="120" width="20" height="20"></rect>
                <rect id="Rectangle-67" fill="#E94B35" x="120" y="120" width="20" height="20"></rect>
                <rect id="Rectangle-66" fill="#FFFFFF" x="100" y="120" width="20" height="20"></rect>
                <rect id="Rectangle-65" fill="#F2C500" x="80" y="120" width="20" height="20"></rect>
                <rect id="Rectangle-64" fill="#E27AFF" x="60" y="120" width="20" height="20"></rect>
                <rect id="Rectangle-63" fill="#BD0FE1" x="40" y="120" width="20" height="20"></rect>
                <rect id="Rectangle-62" fill="#FFFFFF" x="20" y="120" width="20" height="20"></rect>
                <rect id="Rectangle-61" fill="#FFFFFF" x="0" y="120" width="20" height="20"></rect>
                <rect id="Rectangle-60" fill="#E87E03" x="180" y="100" width="20" height="20"></rect>
                <rect id="Rectangle-59" fill="#7ED321" x="160" y="100" width="20" height="20"></rect>
                <rect id="Rectangle-58" fill="#E87E03" x="140" y="100" width="20" height="20"></rect>
                <rect id="Rectangle-57" fill="#FFFFFF" x="120" y="100" width="20" height="20"></rect>
                <rect id="Rectangle-56" fill="#7ED321" x="100" y="100" width="20" height="20"></rect>
                <rect id="Rectangle-55" fill="#E94B35" x="80" y="100" width="20" height="20"></rect>
                <rect id="Rectangle-54" fill="#FFFFFF" x="60" y="100" width="20" height="20"></rect>
                <rect id="Rectangle-53" fill="#F2C500" x="40" y="100" width="20" height="20"></rect>
                <rect id="Rectangle-52" fill="#00BD9C" x="20" y="100" width="20" height="20"></rect>
                <rect id="Rectangle-51" fill="#E87E03" x="0" y="100" width="20" height="20"></rect>
                <rect id="Rectangle-50" fill="#FFFFFF" x="180" y="80" width="20" height="20"></rect>
                <rect id="Rectangle-49" fill="#9012FE" x="160" y="80" width="20" height="20"></rect>
                <rect id="Rectangle-48" fill="#FFFFFF" x="140" y="80" width="20" height="20"></rect>
                <rect id="Rectangle-47" fill="#9012FE" x="120" y="80" width="20" height="20"></rect>
                <rect id="Rectangle-46" fill="#4A7AA8" x="100" y="80" width="20" height="20"></rect>
                <rect id="Rectangle-45" fill="#FFFFFF" x="80" y="80" width="20" height="20"></rect>
                <rect id="Rectangle-44" fill="#F2C500" x="60" y="80" width="20" height="20"></rect>
                <rect id="Rectangle-43" fill="#F2C500" x="40" y="80" width="20" height="20"></rect>
                <rect id="Rectangle-42" fill="#FFFFFF" x="20" y="80" width="20" height="20"></rect>
                <rect id="Rectangle-41" fill="#F2C500" x="0" y="80" width="20" height="20"></rect>
                <rect id="Rectangle-40" fill="#E94B35" x="180" y="60" width="20" height="20"></rect>
                <rect id="Rectangle-39" fill="#F2C500" x="160" y="60" width="20" height="20"></rect>
                <rect id="Rectangle-38" fill="#FFFFFF" x="140" y="60" width="20" height="20"></rect>
                <rect id="Rectangle-37" fill="#F2C500" x="120" y="60" width="20" height="20"></rect>
                <rect id="Rectangle-36" fill="#FFFFFF" x="100" y="60" width="20" height="20"></rect>
                <rect id="Rectangle-35" fill="#9012FE" x="80" y="60" width="20" height="20"></rect>
                <rect id="Rectangle-34" fill="#E94B35" x="60" y="60" width="20" height="20"></rect>
                <rect id="Rectangle-33" fill="#9012FE" x="40" y="60" width="20" height="20"></rect>
                <rect id="Rectangle-32" fill="#E94B35" x="20" y="60" width="20" height="20"></rect>
                <rect id="Rectangle-31" fill="#F2C500" x="0" y="60" width="20" height="20"></rect>
                <rect id="Rectangle-30" fill="#BD0FE1" x="180" y="40" width="20" height="20"></rect>
                <rect id="Rectangle-29" fill="#F2C500" x="160" y="40" width="20" height="20"></rect>
                <rect id="Rectangle-28" fill="#F2C500" x="140" y="40" width="20" height="20"></rect>
                <rect id="Rectangle-27" fill="#E87E03" x="120" y="40" width="20" height="20"></rect>
                <rect id="Rectangle-26" fill="#BD0FE1" x="100" y="40" width="20" height="20"></rect>
                <rect id="Rectangle-25" fill="#E87E03" x="80" y="40" width="20" height="20"></rect>
                <rect id="Rectangle-24" fill="#FFFFFF" x="60" y="40" width="20" height="20"></rect>
                <rect id="Rectangle-23" fill="#FFFFFF" x="40" y="40" width="20" height="20"></rect>
                <rect id="Rectangle-22" fill="#E37AFF" x="20" y="40" width="20" height="20"></rect>
                <rect id="Rectangle-21" fill="#00BD9C" x="0" y="40" width="20" height="20"></rect>
                <rect id="Rectangle-20" fill="#FFFFFF" x="180" y="20" width="20" height="20"></rect>
                <rect id="Rectangle-19" fill="#3997DE" x="160" y="20" width="20" height="20"></rect>
                <rect id="Rectangle-18" fill="#F2C500" x="140" y="20" width="20" height="20"></rect>
                <rect id="Rectangle-17" fill="#00BD9C" x="120" y="20" width="20" height="20"></rect>
                <rect id="Rectangle-16" fill="#7ED321" x="100" y="20" width="20" height="20"></rect>
                <rect id="Rectangle-15" fill="#F2C500" x="80" y="20" width="20" height="20"></rect>
                <rect id="Rectangle-14" fill="#BD0FE1" x="60" y="20" width="20" height="20"></rect>
                <rect id="Rectangle-13" fill="#E37AFF" x="40" y="20" width="20" height="20"></rect>
                <rect id="Rectangle-12" fill="#E94B35" x="20" y="20" width="20" height="20"></rect>
                <rect id="Rectangle-11" fill="#FFFFFF" x="0" y="20" width="20" height="20"></rect>
                <rect id="Rectangle-10" fill="#F2C500" x="180" y="0" width="20" height="20"></rect>
                <rect id="Rectangle-9" fill="#FFFFFF" x="160" y="0" width="20" height="20"></rect>
                <rect id="Rectangle-8" fill="#4A7AA8" x="140" y="0" width="20" height="20"></rect>
                <rect id="Rectangle-7" fill="#F2C500" x="120" y="0" width="20" height="20"></rect>
                <rect id="Rectangle-6" fill="#FFFFFF" x="100" y="0" width="20" height="20"></rect>
                <rect id="Rectangle-5" fill="#F2C500" x="80" y="0" width="20" height="20"></rect>
                <rect id="Rectangle-4" fill="#00BD9C" x="60" y="0" width="20" height="20"></rect>
                <rect id="Rectangle-3" fill="#FFFFFF" x="40" y="0" width="20" height="20"></rect>
                <rect id="Rectangle-101" fill="#E37AFF" x="20" y="0" width="20" height="20"></rect>
                <rect id="Rectangle-2" fill="#2C97DE" x="0" y="0" width="20" height="20"></rect>
                <path d="M295.976562,114.902344 L319.238281,121.933594 C317.675773,128.457064 315.214861,133.906228 311.855469,138.28125 C308.496077,142.656272 304.326197,145.95702 299.345703,148.183594 C294.365209,150.410167 288.027382,151.523438 280.332031,151.523438 C270.996047,151.523438 263.36917,150.166029 257.451172,147.451172 C251.533174,144.736315 246.425803,139.960972 242.128906,133.125 C237.83201,126.289028 235.683594,117.539116 235.683594,106.875 C235.683594,92.6561789 239.462853,81.7285538 247.021484,74.0917969 C254.580116,66.4550399 265.273368,62.6367188 279.101562,62.6367188 C289.921929,62.6367188 298.427703,64.8241969 304.619141,69.1992188 C310.810578,73.5742406 315.410141,80.2929234 318.417969,89.3554688 L294.980469,94.5703125 C294.160152,91.9531119 293.300786,90.0390686 292.402344,88.828125 C290.917961,86.7968648 289.101573,85.2343805 286.953125,84.140625 C284.804677,83.0468695 282.402357,82.5 279.746094,82.5 C273.730439,82.5 269.12111,84.9218508 265.917969,89.765625 C263.496082,93.359393 262.285156,99.0038678 262.285156,106.699219 C262.285156,116.230516 263.730454,122.763654 266.621094,126.298828 C269.511733,129.834002 273.574193,131.601562 278.808594,131.601562 C283.886744,131.601562 287.724596,130.175796 290.322266,127.324219 C292.919935,124.472642 294.804682,120.332058 295.976562,114.902344 L295.976562,114.902344 Z M340.507812,74.3554688 C348.320352,66.5429297 359.199149,62.6367188 373.144531,62.6367188 C387.441478,62.6367188 398.456993,66.474571 406.191406,74.1503906 C413.92582,81.8262103 417.792969,92.5780559 417.792969,106.40625 C417.792969,116.445363 416.103533,124.677702 412.724609,131.103516 C409.345686,137.529329 404.462923,142.529279 398.076172,146.103516 C391.689421,149.677752 383.730516,151.464844 374.199219,151.464844 C364.51167,151.464844 356.494172,149.92189 350.146484,146.835938 C343.798796,143.749985 338.652363,138.867221 334.707031,132.1875 C330.761699,125.507779 328.789062,117.148488 328.789062,107.109375 C328.789062,93.0858674 332.695273,82.1680078 340.507812,74.3554688 Z M355.332031,107.226562 C355.332031,115.898481 356.943343,122.128887 360.166016,125.917969 C363.388688,129.70705 367.77341,131.601562 373.320312,131.601562 C379.023466,131.601562 383.437484,129.746112 386.5625,126.035156 C389.687516,122.3242 391.25,115.664111 391.25,106.054688 C391.25,97.9687096 389.619157,92.0605655 386.357422,88.3300781 C383.095687,84.5995907 378.671903,82.734375 373.085938,82.734375 C367.734348,82.734375 363.437516,84.6288873 360.195312,88.4179688 C356.953109,92.2070502 355.332031,98.4765187 355.332031,107.226562 L355.332031,107.226562 Z M432.089844,64.1015625 L458.632812,64.1015625 L458.632812,128.847656 L500.058594,128.847656 L500.058594,150 L432.089844,150 L432.089844,64.1015625 Z M506.738281,107.109375 C506.738281,93.0858674 510.644492,82.1680078 518.457031,74.3554688 C526.26957,66.5429297 537.148368,62.6367188 551.09375,62.6367188 C565.390696,62.6367188 576.406211,66.474571 584.140625,74.1503906 C591.875039,81.8262103 595.742188,92.5780559 595.742188,106.40625 C595.742188,116.445363 594.052751,124.677702 590.673828,131.103516 C587.294905,137.529329 582.412141,142.529279 576.025391,146.103516 C569.63864,149.677752 561.679735,151.464844 552.148438,151.464844 C542.460889,151.464844 534.443391,149.92189 528.095703,146.835938 C521.748015,143.749985 516.601582,138.867221 512.65625,132.1875 C508.710918,125.507779 506.738281,117.148488 506.738281,107.109375 L506.738281,107.109375 Z M533.28125,107.226562 C533.28125,115.898481 534.892562,122.128887 538.115234,125.917969 C541.337907,129.70705 545.722629,131.601562 551.269531,131.601562 C556.972685,131.601562 561.386703,129.746112 564.511719,126.035156 C567.636734,122.3242 569.199219,115.664111 569.199219,106.054688 C569.199219,97.9687096 567.568376,92.0605655 564.306641,88.3300781 C561.044906,84.5995907 556.621122,82.734375 551.035156,82.734375 C545.683567,82.734375 541.386735,84.6288873 538.144531,88.4179688 C534.902328,92.2070502 533.28125,98.4765187 533.28125,107.226562 L533.28125,107.226562 Z M610.390625,150 L610.390625,64.1015625 L654.628906,64.1015625 C662.832072,64.1015625 669.101541,64.8046805 673.4375,66.2109375 C677.773459,67.6171945 681.269518,70.2245903 683.925781,74.0332031 C686.582045,77.8418159 687.910156,82.4804414 687.910156,87.9492188 C687.910156,92.7148676 686.894541,96.8261546 684.863281,100.283203 C682.832021,103.740252 680.03908,106.542958 676.484375,108.691406 C674.218739,110.058601 671.113301,111.191402 667.167969,112.089844 C670.332047,113.144537 672.636712,114.199213 674.082031,115.253906 C675.058599,115.957035 676.4746,117.460926 678.330078,119.765625 C680.185556,122.070324 681.425778,123.84765 682.050781,125.097656 L694.882812,150 L664.882812,150 L650.703125,123.75 C648.906241,120.351546 647.304695,118.144536 645.898438,117.128906 C643.984365,115.800775 641.816418,115.136719 639.394531,115.136719 L637.050781,115.136719 L637.050781,150 L610.390625,150 Z M637.050781,98.90625 L648.242188,98.90625 C649.453131,98.90625 651.796858,98.5156289 655.273438,97.734375 C657.031259,97.3828107 658.466791,96.4843822 659.580078,95.0390625 C660.693365,93.5937428 661.25,91.9336031 661.25,90.0585938 C661.25,87.2851424 660.371103,85.1562574 658.613281,83.671875 C656.85546,82.1874926 653.554712,81.4453125 648.710938,81.4453125 L637.050781,81.4453125 L637.050781,98.90625 Z" id="COLOR" fill="#FFFFFF"></path>
                <path d="M29.90625,54.1015625 L95.53125,54.1015625 L95.53125,72.5585938 L56.5664062,72.5585938 L56.5664062,87.5585938 L89.8476562,87.5585938 L89.8476562,104.902344 L56.5664062,104.902344 L56.5664062,140 L29.90625,140 L29.90625,54.1015625 Z M108.246094,77.7734375 L130.453125,77.7734375 L130.453125,87.9101562 C133.773454,83.7695105 137.132796,80.8105558 140.53125,79.0332031 C143.929704,77.2558505 148.070288,76.3671875 152.953125,76.3671875 C159.554721,76.3671875 164.720684,78.3300585 168.451172,82.2558594 C172.181659,86.1816603 174.046875,92.2460527 174.046875,100.449219 L174.046875,140 L150.082031,140 L150.082031,105.78125 C150.082031,101.87498 149.359382,99.1113362 147.914062,97.4902344 C146.468743,95.8691325 144.437513,95.0585938 141.820312,95.0585938 C138.929673,95.0585938 136.585946,96.1523328 134.789062,98.3398438 C132.992179,100.527355 132.09375,104.453097 132.09375,110.117188 L132.09375,140 L108.246094,140 L108.246094,77.7734375 Z" id="Fn" fill="#1C3E5F"></path>
            </g>
        </g>
    </g>
</svg>